<?xml version="1.0" encoding="UTF-8" standalone="no"?>
<!DOCTYPE svg PUBLIC "-//W3C//DTD SVG 1.1//EN" "http://www.w3.org/Graphics/SVG/1.1/DTD/svg11.dtd">
<svg width="100%" height="100%" viewBox="0 0 198 191" version="1.1" xmlns="http://www.w3.org/2000/svg" xmlns:xlink="http://www.w3.org/1999/xlink" xml:space="preserve" xmlns:serif="http://www.serif.com/" style="fill-rule:evenodd;clip-rule:evenodd;stroke-linejoin:round;stroke-miterlimit:2;">
    <g transform="matrix(1,0,0,1,-700,-381.733)">
        <path d="M772,381.733L772,572.267C730.464,560.5 700,522.28 700,477C700,431.72 730.464,393.5 772,381.733ZM854.571,395.077C880.777,412.899 898,442.954 898,477C898,511.03 880.793,541.072 854.619,558.89C855.682,557.546 856.699,556.101 857.669,554.554C860.915,549.376 863.484,542.807 865.378,534.847C867.271,526.886 868.218,517.187 868.218,505.749L868.218,448.251C868.218,436.813 867.271,427.133 865.378,419.211C863.484,411.29 860.915,404.721 857.669,399.504C856.684,397.922 855.652,396.446 854.571,395.077ZM809.676,555.018C815.085,555.018 819.549,554.322 823.065,552.931C826.581,551.54 829.364,549.086 831.412,545.57C833.46,542.053 834.87,537.262 835.643,531.195C836.416,525.128 836.802,517.458 836.802,508.184L836.802,446.744C836.802,437.47 836.416,429.799 835.643,423.732C834.87,417.666 833.46,412.874 831.412,409.358C829.364,405.841 826.581,403.388 823.065,401.996C819.549,400.605 815.085,399.91 809.676,399.91L802.025,399.91L802.025,555.018L809.676,555.018Z" style="fill:rgb(0,167,255);"/>
    </g>
</svg>
